<svg version="1.1" xmlns="http://www.w3.org/2000/svg" xmlns:xlink="http://www.w3.org/1999/xlink" width="512" height="512" viewBox="0,0,256,256"><g fill="#627b9b" fill-rule="nonzero" stroke="none" stroke-width="1" stroke-linecap="butt" stroke-linejoin="miter" stroke-miterlimit="10" stroke-dasharray="" stroke-dashoffset="0" font-family="none" font-weight="none" font-size="none" text-anchor="none" style="mix-blend-mode: normal"><g transform="scale(10.66667,10.66667)"><path d="M23,16c-0.55228,0 -1,0.44772 -1,1v2c0,1.65685 -1.34315,3 -3,3h-2c-0.55228,0 -1,0.44772 -1,1c0,0.55228 0.44772,1 1,1h2c2.76005,-0.00331 4.99669,-2.23995 5,-5v-2c0,-0.55228 -0.44772,-1 -1,-1z"></path><path d="M1,8c0.55228,0 1,-0.44772 1,-1v-2c0,-1.65685 1.34315,-3 3,-3h2c0.55228,0 1,-0.44772 1,-1c0,-0.55228 -0.44772,-1 -1,-1h-2c-2.76005,0.00331 -4.99669,2.23995 -5,5v2c0,0.55228 0.44772,1 1,1z"></path><path d="M7,22h-2c-1.65685,0 -3,-1.34315 -3,-3v-2c0,-0.55228 -0.44772,-1 -1,-1c-0.55228,0 -1,0.44772 -1,1v2c0.00331,2.76005 2.23995,4.99669 5,5h2c0.55228,0 1,-0.44772 1,-1c0,-0.55228 -0.44772,-1 -1,-1z"></path><path d="M19,0h-2c-0.55228,0 -1,0.44772 -1,1c0,0.55228 0.44772,1 1,1h2c1.65685,0 3,1.34315 3,3v2c0,0.55228 0.44772,1 1,1c0.55228,0 1,-0.44772 1,-1v-2c-0.00331,-2.76005 -2.23995,-4.99669 -5,-5z"></path><path d="M12,11c2.20914,0 4,-1.79086 4,-4c0,-2.20914 -1.79086,-4 -4,-4c-2.20914,0 -4,1.79086 -4,4c0,2.20914 1.79086,4 4,4zM12,5c1.10457,0 2,0.89543 2,2c0,1.10457 -0.89543,2 -2,2c-1.10457,0 -2,-0.89543 -2,-2c0,-1.10457 0.89543,-2 2,-2z"></path><path d="M18,20c0.55228,0 1,-0.44772 1,-1c-0.00331,-3.31234 -2.68766,-5.99669 -6,-6h-2c-3.31234,0.00331 -5.99669,2.68766 -6,6c0,0.55228 0.44772,1 1,1c0.55228,0 1,-0.44772 1,-1c0,-2.20914 1.79086,-4 4,-4h2c2.20914,0 4,1.79086 4,4c0,0.55228 0.44772,1 1,1z"></path></g></g></svg>