<svg version="1.1" xmlns="http://www.w3.org/2000/svg" xmlns:xlink="http://www.w3.org/1999/xlink" width="512" height="512" viewBox="0,0,256,256"><g fill="#627b9b" fill-rule="nonzero" stroke="none" stroke-width="1" stroke-linecap="butt" stroke-linejoin="miter" stroke-miterlimit="10" stroke-dasharray="" stroke-dashoffset="0" font-family="none" font-weight="none" font-size="none" text-anchor="none" style="mix-blend-mode: normal"><g transform="scale(0.5,0.5)"><g><path d="M490.667,96c0,-17.673 -14.327,-32 -32,-32h-80.555c-13.48,-38.243 -49.563,-63.87 -90.112,-64h-64c-40.549,0.13 -76.632,25.757 -90.112,64h-80.555c-17.673,0 -32,14.327 -32,32v0c0,17.673 14.327,32 32,32h10.667v266.667c0,64.801 52.532,117.333 117.333,117.333h149.333c64.802,0 117.334,-52.532 117.334,-117.333v-266.667h10.667c17.673,0 32,-14.327 32,-32zM384,394.667c0,29.455 -23.878,53.333 -53.333,53.333h-149.334c-29.455,0 -53.333,-23.878 -53.333,-53.333v-266.667h256z"></path><path d="M202.667,384c17.673,0 32,-14.327 32,-32v-128c0,-17.673 -14.327,-32 -32,-32c-17.673,0 -32,14.327 -32,32v128c0,17.673 14.327,32 32,32z"></path><path d="M309.333,384c17.673,0 32,-14.327 32,-32v-128c0,-17.673 -14.327,-32 -32,-32c-17.673,0 -32,14.327 -32,32v128c0,17.673 14.327,32 32,32z"></path></g></g></g></svg>