<svg version="1.1" xmlns="http://www.w3.org/2000/svg" xmlns:xlink="http://www.w3.org/1999/xlink" width="512" height="512" viewBox="0,0,256,256"><g fill="#627b9b" fill-rule="nonzero" stroke="none" stroke-width="1" stroke-linecap="butt" stroke-linejoin="miter" stroke-miterlimit="10" stroke-dasharray="" stroke-dashoffset="0" font-family="none" font-weight="none" font-size="none" text-anchor="none" style="mix-blend-mode: normal"><g transform="translate(-0.00002,0) scale(0.50078,0.50078)"><g><path d="M496.108,203.908c-8.331,-8.328 -21.835,-8.328 -30.165,0l-232.363,233.366c-41.656,41.661 -109.197,41.666 -150.859,0.011c-41.662,-41.655 -41.666,-109.197 -0.011,-150.859l225.046,-225.963c25.193,-24.792 65.715,-24.467 90.507,0.726c24.507,24.904 24.512,64.86 0.011,89.77l-225.046,225.963c-8.433,8.078 -21.733,8.078 -30.165,0c-8.328,-8.331 -8.328,-21.835 0,-30.165l200.363,-201.28c8.185,-8.475 7.951,-21.98 -0.524,-30.165c-8.267,-7.985 -21.374,-7.985 -29.641,0l-200.363,201.28c-24.996,24.991 -24.999,65.514 -0.008,90.51c0.003,0.003 0.005,0.005 0.008,0.008c25.331,24.172 65.186,24.172 90.517,0l225.024,-225.984c41.122,-42.183 40.261,-109.715 -1.922,-150.837c-41.43,-40.389 -107.503,-40.384 -148.926,0.009l-225.046,225.962c-58.321,58.321 -58.321,152.879 0,211.2c58.321,58.321 152.879,58.321 211.2,0l232.363,-233.301c8.353,-8.309 8.39,-21.816 0.081,-30.17c-0.027,-0.027 -0.054,-0.054 -0.081,-0.081z"></path></g></g></g></svg>